<mxfile host="app.diagrams.net" modified="2024-02-28T02:20:08.167Z" agent="Mozilla/5.0 (Macintosh; Intel Mac OS X 10_15_7) AppleWebKit/537.36 (KHTML, like Gecko) Chrome/122.0.0.0 Safari/537.36" version="23.1.5" etag="1wHVTbSweg39Hj_uFaxP" type="github">
  <diagram name="Page-1" id="lUy-RcybWnonIY5IhTIt">
    <mxGraphModel>
      <root>
        <mxCell id="0" />
        <mxCell id="1" parent="0" />
      </root>
    </mxGraphModel>
  </diagram>
</mxfile>
